<?xml version="1.0" encoding="utf-8"?>
<!-- Generator: Adobe Illustrator 23.0.1, SVG Export Plug-In . SVG Version: 6.00 Build 0)  -->
<svg version="1.1" id="Livello_1" xmlns="http://www.w3.org/2000/svg" xmlns:xlink="http://www.w3.org/1999/xlink" x="0px" y="0px"
	 viewBox="0 0 400 200" style="enable-background:new 0 0 400 200;" xml:space="preserve">
<style type="text/css">
	.st0{fill:#FFFFFF;stroke:#FFFFFF;stroke-miterlimit:10;}
	.st1{fill:none;stroke:#FFFFFF;stroke-width:5;stroke-miterlimit:10;}
	.st2{fill:#FFFFFF;}
	.st3{font-family:'Prata-Regular';}
	.st4{font-size:28.84px;}
	.st5{fill:none;}
	.st6{font-size:31.64px;}
	.st7{letter-spacing:1.1;}
</style>
<title>Tavola disegno 1full_logo</title>
<path class="st0" d="M93.1,102.5c3.7,7.7,3.9,13.6,3.6,16c-0.4,2.6-1.3,5-2.7,7.2l0.6,0.2c6.1,2.3,12.9,1,17.8-3.3
	c0.5-0.4,0.9-0.9,1.4-1.3c3.4-3.4,5.1-7,5.2-10.8c0.1-3.9-1.5-7.6-4.4-10.3c-1.9-2.1-4.6-3.3-7.4-3.3c-3.3,0.3-6.4,1.3-9.2,3
	L93.1,102.5z M82.3,77.7c0.3,3.3,1.3,6.4,3.1,9.2l2.7,5.4c2.4-1,5-2.1,7.6-3l0,0c2.5-0.8,5.2-1.1,7.8-0.7c2.6,0.4,5.2,1.4,7.4,2.8
	l0.4-1.1c2.3-6.1,1-12.9-3.3-17.8c-0.4-0.5-0.9-0.9-1.3-1.4c-3.4-3.4-7-5.2-10.8-5.3c-3.9-0.1-7.6,1.5-10.3,4.4
	C83.5,72.2,82.3,74.9,82.3,77.7z M55.3,99.7c1.9,2.1,4.6,3.3,7.4,3.2c3.3-0.3,6.4-1.3,9.2-3.1c0,0,2.3-1.2,5.8-2.9
	c-1.1-2.5-2.1-5.1-3.1-7.7l0,0c-0.8-2.5-1-5.2-0.7-7.8c0.4-2.5,1.2-4.9,2.6-7l-1.2-0.5c-6.1-2.3-12.9-1-17.8,3.3
	c-0.5,0.4-0.9,0.9-1.4,1.3c-3.4,3.4-5.2,7-5.3,10.8C50.8,93.3,52.4,97.1,55.3,99.7L55.3,99.7z M74.7,134c3.9,0.1,7.6-1.5,10.3-4.4
	c1.3-1.2,2.2-2.7,2.8-4.3c-0.1-0.4,0-0.7,0.3-1c0.1-0.7,0.2-1.3,0.2-2c-0.3-3.3-1.3-6.5-3-9.3c0,0-1.1-2.1-2.6-5.4
	c-7.7,3.8-13.7,4-16.1,3.7c-2.4-0.4-4.8-1.2-6.8-2.5l-0.3,0.7c-2.3,6.1-1,12.9,3.3,17.8c0.4,0.5,0.8,0.9,1.3,1.4
	C67.4,132.2,70.9,133.9,74.7,134z M122.4,84.6c0.1,0.5-0.1,1-0.5,1.4l-8,8l0.3,0.3c2.7,2.6,4.7,5.8,6,9.3c1.1,3.2,1.3,6.6,0.5,9.9
	c-1,3.5-2.8,6.7-5.5,9.2c-2.9,3-6.5,5.5-10.3,7.2c-0.8,0.3-1.3,0.9-1.6,1.7l-1.8,4.7c-0.2,0.5-0.6,0.9-1.1,1s-1-0.1-1.4-0.5
	l-7.7-7.7l-0.3,0.3c-2.6,2.7-5.8,4.7-9.3,6c-3.2,1.1-6.6,1.3-9.9,0.5c-3.5-1-6.7-2.9-9.2-5.5c-3-3-5.4-6.5-7.2-10.3
	c-0.3-0.8-0.9-1.3-1.7-1.6l-4.7-1.8c-0.5-0.2-0.9-0.6-1-1.1s0.1-1,0.5-1.3l7.7-7.7c-0.2-0.2-0.4-0.4-0.6-0.6c-2.7-2.6-4.7-5.8-6-9.3
	c-1.2-3.2-1.3-6.6-0.5-9.9c1-3.5,2.9-6.7,5.5-9.2c2.9-3,6.4-5.5,10.3-7.2c0.8-0.3,1.3-0.9,1.6-1.7l1.8-4.7c0.2-0.5,0.6-0.9,1.1-1
	s1,0.1,1.4,0.5l8,8c0.2-0.2,0.4-0.4,0.6-0.6c2.6-2.7,5.8-4.7,9.3-6c3.2-1.1,6.6-1.3,9.9-0.5c3.5,1,6.7,2.9,9.2,5.5
	c3,2.9,5.5,6.5,7.2,10.3c0.3,0.8,0.9,1.3,1.7,1.6l4.7,1.8C122,83.6,122.3,84.1,122.4,84.6L122.4,84.6z M90.5,100
	c0-2.9-2.3-5.2-5.2-5.2c-2.9,0-5.2,2.3-5.2,5.2s2.3,5.2,5.2,5.2l0,0C88.1,105.3,90.4,102.9,90.5,100z"/>
<circle class="st1" cx="85.2" cy="100" r="52"/>
<text transform="matrix(1.1942 0 0 1 154.7471 84.3896)" class="st2 st3 st4">S</text>
<text transform="matrix(1.1942 0 0 1 154.7471 84.3896)" class="st5 st3 st4">S</text>
<text transform="matrix(1.1942 0 0 1 178.2651 84.3896)" class="st2 st3 st4">P</text>
<text transform="matrix(1.1942 0 0 1 178.2651 84.3896)" class="st5 st3 st4">P</text>
<text transform="matrix(1.1942 0 0 1 200 84.3896)" class="st2 st3 st4">AZI</text>
<text transform="matrix(1.1942 0 0 1 200 84.3896)" class="st5 st3 st4">AZI</text>
<text transform="matrix(0.9381 -1.146048e-03 1.221730e-03 1 154.2862 130.1549)" class="st2 st3 st6 st7">SOSTENIBILI</text>
<text transform="matrix(0.9381 -1.146048e-03 1.221730e-03 1 154.2862 130.1549)" class="st5 st3 st6 st7">SOSTENIBILI</text>
</svg>
