<svg id="Livello_1" data-name="Livello 1" xmlns="http://www.w3.org/2000/svg" viewBox="0 0 400 200"><defs><style>.cls-1,.cls-3,.cls-5{fill:#fff;}.cls-2{fill:none;stroke:#fff;stroke-miterlimit:10;stroke-width:5px;}.cls-3,.cls-5{font-size:28px;font-family:Prata-Regular, Prata;}.cls-3{letter-spacing:0.02em;}.cls-4{letter-spacing:-0.05em;}.cls-5{letter-spacing:0.04em;}</style></defs><title>Tavola disegno 1full_logo</title><g id="LogoHome"><path class="cls-1" d="M77.85,92.47c3.7,7.65,3.94,13.56,3.59,16a17.89,17.89,0,0,1-2.74,7.22l.64.23a17.63,17.63,0,0,0,17.79-3.27c.48-.42.94-.86,1.4-1.32,3.39-3.39,5.14-7,5.24-10.8a13.64,13.64,0,0,0-4.41-10.27A9.74,9.74,0,0,0,92,87,20.64,20.64,0,0,0,82.79,90ZM67.11,67.69a20.68,20.68,0,0,0,3.06,9.18l2.66,5.42c2.45-1,5-2.08,7.56-3h0a17.52,17.52,0,0,1,7.81-.69,18.15,18.15,0,0,1,7.4,2.85l.4-1.09a17.62,17.62,0,0,0-3.27-17.8c-.42-.47-.86-.94-1.32-1.39-3.39-3.4-7-5.15-10.8-5.25A13.64,13.64,0,0,0,70.34,60.3,9.74,9.74,0,0,0,67.11,67.69Zm-27,22a9.75,9.75,0,0,0,7.39,3.23,20.56,20.56,0,0,0,9.18-3.06s2.29-1.18,5.84-2.87c-1.07-2.49-2.13-5.1-3.1-7.7h0a17.5,17.5,0,0,1-.68-7.81,17.89,17.89,0,0,1,2.59-7L60.11,64a17.65,17.65,0,0,0-17.8,3.27c-.47.42-.93.86-1.39,1.32-3.4,3.39-5.15,7-5.25,10.8A13.63,13.63,0,0,0,40.08,89.67ZM59.53,124a13.63,13.63,0,0,0,10.27-4.41,11,11,0,0,0,2.8-4.33,1.06,1.06,0,0,1,.28-1,8.44,8.44,0,0,0,.15-2A20.6,20.6,0,0,0,70,103s-1.07-2.09-2.64-5.36c-7.71,3.77-13.69,4-16.08,3.66a18,18,0,0,1-6.84-2.49l-.27.73a17.65,17.65,0,0,0,3.28,17.8c.42.47.85.94,1.31,1.39Q53.83,123.84,59.53,124Zm47.68-49.43a1.57,1.57,0,0,1-.47,1.37l-8,8,.27.26a24.59,24.59,0,0,1,6,9.26,16.84,16.84,0,0,1,.47,9.9A20.09,20.09,0,0,1,100,112.6a32.85,32.85,0,0,1-10.32,7.15,3,3,0,0,0-1.64,1.7l-1.76,4.67a1.52,1.52,0,0,1-1.14,1,1.54,1.54,0,0,1-1.36-.47l-7.68-7.67-.26.27a24.59,24.59,0,0,1-9.26,6,16.84,16.84,0,0,1-9.9.47,20.17,20.17,0,0,1-9.23-5.54,33,33,0,0,1-7.15-10.32,3,3,0,0,0-1.69-1.64l-4.68-1.76a1.5,1.5,0,0,1-1-1.14A1.54,1.54,0,0,1,33.4,104l7.68-7.68q-.31-.28-.63-.6a24.56,24.56,0,0,1-6-9.26,16.68,16.68,0,0,1-.47-9.9,20.09,20.09,0,0,1,5.54-9.23A32.81,32.81,0,0,1,49.8,60.13a3,3,0,0,0,1.64-1.7l1.76-4.67a1.53,1.53,0,0,1,1.14-1,1.57,1.57,0,0,1,1.37.47l8,8q.29-.31.6-.63a24.75,24.75,0,0,1,9.27-6,16.84,16.84,0,0,1,9.9-.47,20.19,20.19,0,0,1,9.22,5.54A32.8,32.8,0,0,1,99.88,70a3,3,0,0,0,1.7,1.64l4.68,1.76A1.52,1.52,0,0,1,107.21,74.56ZM75.24,90A5.24,5.24,0,1,0,70,95.23,5.25,5.25,0,0,0,75.24,90Z"/><circle class="cls-2" cx="70" cy="90" r="52"/></g><text class="cls-3" transform="matrix(1.23, 0, 0, 1.03, 139.51, 74.35)">S<tspan class="cls-4" x="19.12" y="0">P</tspan><tspan x="36.79" y="0">AZI</tspan></text><text class="cls-5" transform="translate(139.03 120.11) rotate(-0.07) scale(1.06 1.13)">SOSTENIBILI</text></svg>