<?xml version="1.0" encoding="utf-8"?>
<!-- Generator: Adobe Illustrator 23.0.1, SVG Export Plug-In . SVG Version: 6.00 Build 0)  -->
<svg version="1.1" id="Livello_1" xmlns="http://www.w3.org/2000/svg" xmlns:xlink="http://www.w3.org/1999/xlink" x="0px" y="0px"
	 viewBox="0 0 324.2 91.3" style="enable-background:new 0 0 324.2 91.3;" xml:space="preserve">
<style type="text/css">
	.st0{fill:#FFFFFF;}
	.st1{fill:none;stroke:#FFFFFF;stroke-width:5;stroke-miterlimit:10;}
	.st2{font-family:'Prata-Regular';}
	.st3{font-size:28.84px;}
	.st4{letter-spacing:-0.8;}
	.st5{font-size:31.64px;}
	.st6{letter-spacing:1.1;}
</style>
<title>Tavola disegno 1full_logo</title>
<g id="LogoHome">
	<path class="st0" d="M47.8,47.9c2.5,5.1,2.7,9.1,2.4,10.8c-0.3,1.7-0.9,3.4-1.8,4.9l0.4,0.2c4.1,1.5,8.7,0.7,12-2.2
		c0.3-0.3,0.6-0.6,0.9-0.9c2.3-2.3,3.5-4.7,3.5-7.3c0-2.6-1-5.1-3-6.9c-1.3-1.4-3.1-2.2-5-2.2c-2.2,0.2-4.3,0.9-6.2,2L47.8,47.9z
		 M40.6,31.2c0.2,2.2,0.9,4.3,2.1,6.2l1.8,3.6c1.6-0.7,3.4-1.4,5.1-2l0,0c1.7-0.6,3.5-0.7,5.3-0.5c1.8,0.3,3.5,0.9,5,1.9l0.3-0.7
		c1.5-4.1,0.7-8.7-2.2-12c-0.3-0.3-0.6-0.6-0.9-0.9c-2.3-2.3-4.7-3.5-7.3-3.5c-2.6,0-5.1,1-6.9,2.9C41.4,27.5,40.6,29.3,40.6,31.2z
		 M22.4,46c1.3,1.4,3.1,2.2,5,2.2c2.2-0.2,4.3-0.9,6.2-2.1c0,0,1.5-0.8,3.9-1.9c-0.7-1.7-1.4-3.4-2.1-5.2l0,0
		c-0.5-1.7-0.7-3.5-0.5-5.3c0.2-1.7,0.8-3.3,1.7-4.7l-0.8-0.3c-4.1-1.5-8.7-0.7-12,2.2c-0.3,0.3-0.6,0.6-0.9,0.9
		c-2.3,2.3-3.5,4.7-3.5,7.3C19.4,41.7,20.5,44.2,22.4,46L22.4,46z M35.5,69.1c2.6,0,5.1-1,6.9-3c0.9-0.8,1.5-1.8,1.9-2.9
		c-0.1-0.2,0-0.5,0.2-0.7c0.1-0.4,0.1-0.9,0.1-1.3c-0.2-2.2-0.9-4.3-2-6.2c0,0-0.7-1.4-1.8-3.6c-5.2,2.5-9.2,2.7-10.8,2.5
		c-1.6-0.2-3.2-0.8-4.6-1.7l-0.2,0.5c-1.5,4.1-0.7,8.7,2.2,12c0.3,0.3,0.6,0.6,0.9,0.9C30.5,67.9,32.9,69.1,35.5,69.1z M67.6,35.9
		c0.1,0.3-0.1,0.7-0.3,0.9l-5.4,5.4l0.2,0.2c1.8,1.7,3.2,3.9,4,6.2c0.8,2.1,0.9,4.5,0.3,6.7c-0.6,2.4-1.9,4.5-3.7,6.2
		c-2,2-4.3,3.7-6.9,4.8c-0.5,0.2-0.9,0.6-1.1,1.1l-1.2,3.1c-0.1,0.3-0.4,0.6-0.8,0.7c-0.3,0.1-0.7-0.1-0.9-0.3l-5.2-5.2l-0.2,0.2
		c-1.7,1.8-3.9,3.2-6.2,4c-2.1,0.8-4.5,0.9-6.7,0.3c-2.4-0.7-4.5-1.9-6.2-3.7c-2-2-3.7-4.3-4.8-6.9c-0.2-0.5-0.6-0.9-1.1-1.1
		l-3.2-1.2c-0.3-0.1-0.6-0.4-0.7-0.8c0-0.3,0.1-0.7,0.3-0.9l5.2-5.2c-0.1-0.1-0.3-0.3-0.4-0.4c-1.8-1.7-3.2-3.9-4-6.2
		c-0.8-2.1-0.9-4.5-0.3-6.7c0.7-2.4,1.9-4.5,3.7-6.2c2-2,4.3-3.7,6.9-4.8c0.5-0.2,0.9-0.6,1.1-1.1l1.2-3.1c0.1-0.3,0.4-0.6,0.8-0.7
		c0.3-0.1,0.7,0.1,0.9,0.3l5.4,5.4c0.1-0.1,0.3-0.3,0.4-0.4c1.7-1.8,3.9-3.2,6.2-4c2.1-0.8,4.5-0.9,6.7-0.3c2.4,0.7,4.5,1.9,6.2,3.7
		c2,2,3.7,4.3,4.8,7c0.2,0.5,0.6,0.9,1.1,1.1l3.2,1.2C67.3,35.2,67.5,35.5,67.6,35.9L67.6,35.9z M46.1,46.2c0-1.9-1.6-3.5-3.5-3.5
		c-1.9,0-3.5,1.6-3.5,3.5c0,1.9,1.6,3.5,3.5,3.5c0,0,0,0,0,0C44.5,49.8,46.1,48.2,46.1,46.2z"/>
	<circle class="st1" cx="42.5" cy="46.2" r="35"/>
</g>
<text transform="matrix(1.1942 0 0 1 100.0703 34.9361)" class="st0 st2 st3">S</text>
<text transform="matrix(1.1942 0 0 1 123.5879 34.9361)" class="st0 st2 st3 st4">P</text>
<text transform="matrix(1.1942 0 0 1 145.3222 34.9361)" class="st0 st2 st3">AZI</text>
<text transform="matrix(0.9381 -1.146048e-03 1.221730e-03 1 99.5968 80.7024)" class="st0 st2 st5 st6">SOSTENIBILI</text>
</svg>
