<svg width="279" height="74" viewBox="0 0 279 74" fill="none" xmlns="http://www.w3.org/2000/svg">
<path d="M41.3 37.7C43.8 42.8 44 46.8 43.7 48.5C43.4005 50.2285 42.7907 51.8886 41.9 53.4L42.3 53.6C44.3131 54.3472 46.4905 54.5372 48.6025 54.1499C50.7145 53.7627 52.6829 52.8127 54.3 51.4L55.2 50.5C57.5 48.2 58.7 45.8 58.7 43.2C58.7144 41.9034 58.4546 40.6184 57.9376 39.4293C57.4206 38.2402 56.6581 37.1738 55.7 36.3C55.0625 35.6095 54.2894 35.0577 53.4292 34.6792C52.5689 34.3007 51.6399 34.1035 50.7 34.1C48.5127 34.3089 46.3971 34.9913 44.5 36.1L41.3 37.7ZM34.1 21C34.3002 23.2036 35.0199 25.3283 36.2 27.2L38 30.8C39.6 30.1 41.4 29.4 43.1 28.8C44.8063 28.2356 46.6182 28.0646 48.4 28.3C50.1827 28.5712 51.8871 29.2189 53.4 30.2L53.7 29.5C54.4472 27.4869 54.6372 25.3096 54.25 23.1975C53.8627 21.0855 52.9127 19.1171 51.5 17.5L50.6 16.6C48.3 14.3 45.9 13.1 43.3 13.1C42.0129 13.0874 40.7369 13.3382 39.5503 13.8369C38.3637 14.3357 37.2917 15.0718 36.4 16C35.6789 16.6184 35.1 17.3854 34.7031 18.2484C34.3061 19.1114 34.1004 20.0501 34.1 21V21ZM15.9 35.8C16.536 36.4925 17.3088 37.0455 18.1694 37.4241C19.03 37.8028 19.9598 37.9989 20.9 38C23.1055 37.8089 25.2324 37.0886 27.1 35.9C27.1 35.9 28.6 35.1 31 34C30.3 32.3 29.6 30.6 28.9 28.8C28.3803 27.0846 28.2103 25.2823 28.4 23.5C28.601 21.8242 29.1825 20.2166 30.1 18.8L29.3 18.5C27.287 17.7528 25.1096 17.5628 22.9975 17.9501C20.8855 18.3373 18.9171 19.2873 17.3 20.7L16.4 21.6C14.1 23.9 12.9 26.3 12.9 28.9C12.9068 30.1933 13.1762 31.4718 13.6919 32.6579C14.2075 33.844 14.9588 34.913 15.9 35.8V35.8ZM29 58.9C30.2968 58.9157 31.5822 58.6565 32.7715 58.1394C33.9608 57.6223 35.0271 56.8591 35.9 55.9C36.7665 55.1079 37.4199 54.1107 37.8 53C37.7652 52.8794 37.7656 52.7513 37.801 52.6309C37.8364 52.5104 37.9054 52.4026 38 52.32C38.0833 51.892 38.1169 51.4557 38.1 51.02C37.8911 48.8327 37.2087 46.7171 36.1 44.82L34.3 41.22C29.1 43.72 25.1 43.92 23.5 43.72C21.8599 43.5001 20.2889 42.9195 18.9 42.02L18.7 42.52C17.9529 44.5331 17.7629 46.7105 18.1501 48.8225C18.5373 50.9345 19.4873 52.9029 20.9 54.52L21.8 55.42C24 57.7 26.4 58.9 29 58.9ZM61.1 25.7C61.1284 25.8631 61.1159 26.0308 61.0635 26.1878C61.0112 26.3449 60.9206 26.4865 60.8 26.6L55.4 32L55.6 32.2C57.4043 33.9218 58.775 36.0464 59.6 38.4C60.395 40.5477 60.4999 42.8899 59.9 45.1C59.2907 47.4861 58.006 49.6458 56.2 51.32C54.2312 53.3501 51.8881 54.9801 49.3 56.12C49.0525 56.2206 48.8276 56.3697 48.6387 56.5587C48.4497 56.7476 48.3006 56.9725 48.2 57.22L47 60.32C46.9343 60.4933 46.827 60.6479 46.6875 60.7699C46.5479 60.892 46.3805 60.9779 46.2 61.02C46.0369 61.0484 45.8693 61.0359 45.7122 60.9835C45.5551 60.9312 45.4135 60.8406 45.3 60.72L40.1 55.52L39.9 55.72C38.1809 57.5275 36.0554 58.8988 33.7 59.72C31.5524 60.515 29.2101 60.6199 27 60.02C24.6369 59.3696 22.4943 58.091 20.8 56.32C18.7699 54.3512 17.1399 52.0081 16 49.42C15.8994 49.1725 15.7503 48.9476 15.5613 48.7587C15.3724 48.5697 15.1475 48.4206 14.9 48.32L11.7 47.12C11.5267 47.0543 11.3721 46.947 11.2501 46.8075C11.128 46.6679 11.0421 46.5005 11 46.32C10.9939 45.9945 11.0998 45.6767 11.3 45.42L16.5 40.22L16.1 39.82C14.2958 38.0982 12.925 35.9736 12.1 33.62C11.305 31.4723 11.2001 29.1301 11.8 26.92C12.4527 24.5579 13.731 22.4159 15.5 20.72C17.4688 18.6899 19.8119 17.0599 22.4 15.92C22.6475 15.8194 22.8724 15.6703 23.0613 15.4813C23.2503 15.2924 23.3994 15.0675 23.5 14.82L24.7 11.72C24.7657 11.5467 24.873 11.3921 25.0126 11.2701C25.1521 11.148 25.3195 11.0621 25.5 11.02C25.6631 10.9916 25.8308 11.0041 25.9878 11.0565C26.1449 11.1088 26.2866 11.1994 26.4 11.32L31.8 16.72L32.2 16.32C33.9247 14.5193 36.0485 13.1491 38.4 12.32C40.5477 11.525 42.8899 11.4201 45.1 12.02C47.4631 12.6704 49.6057 13.949 51.3 15.72C53.3528 17.7082 54.9851 20.0887 56.1 22.72C56.2006 22.9675 56.3497 23.1924 56.5387 23.3813C56.7276 23.5703 56.9525 23.7194 57.2 23.82L60.4 25.02C60.8 25 61 25.32 61.1 25.7V25.7ZM39.6 36C39.6 35.3078 39.3947 34.6311 39.0102 34.0555C38.6256 33.4799 38.0789 33.0313 37.4394 32.7664C36.7999 32.5015 36.0961 32.4322 35.4172 32.5673C34.7383 32.7023 34.1146 33.0356 33.6251 33.5251C33.1356 34.0146 32.8023 34.6383 32.6673 35.3172C32.5322 35.9961 32.6015 36.6998 32.8664 37.3394C33.1313 37.9789 33.5799 38.5256 34.1555 38.9101C34.7311 39.2947 35.4078 39.5 36.1 39.5V39.5C36.5495 39.512 36.9969 39.4349 37.4165 39.2733C37.8361 39.1116 38.2196 38.8686 38.5449 38.5582C38.8702 38.2477 39.1309 37.876 39.312 37.4645C39.493 37.0529 39.5909 36.6096 39.6 36.16V36Z" fill="white"/>
<path d="M36 71C55.33 71 71 55.33 71 36C71 16.67 55.33 1 36 1C16.67 1 1 16.67 1 36C1 55.33 16.67 71 36 71Z" stroke="white" stroke-width="2" stroke-miterlimit="10"/>
<path d="M96.282 30.52C94.67 30.52 93.084 30.0607 91.524 29.142L89.314 30.26H88.742V23.578H89.314L91.55 28.414C92.9887 29.4367 94.6353 29.948 96.49 29.948C98.0153 29.948 99.272 29.5493 100.26 28.752C101.265 27.9373 101.768 26.802 101.768 25.346C101.768 24.2887 101.447 23.4567 100.806 22.85C100.165 22.226 99.1247 21.732 97.686 21.368L93.37 20.25C91.862 19.8513 90.7267 19.1753 89.964 18.222C89.2013 17.2513 88.82 16.1073 88.82 14.79C88.82 13.594 89.054 12.5367 89.522 11.618C90.0073 10.682 90.7093 9.96267 91.628 9.46C92.5467 8.94 93.6387 8.68 94.904 8.68C96.4813 8.68 97.894 8.94867 99.142 9.486L101.04 8.68H101.612V13.984H101.04L99.168 10.188C97.868 9.564 96.4553 9.252 94.93 9.252C93.422 9.252 92.2347 9.642 91.368 10.422C90.5013 11.1847 90.068 12.1987 90.068 13.464C90.068 14.4 90.3713 15.1367 90.978 15.674C91.602 16.2113 92.512 16.636 93.708 16.948L98.362 18.17C99.87 18.5513 100.988 19.21 101.716 20.146C102.461 21.0647 102.834 22.4687 102.834 24.358C102.834 26.282 102.236 27.79 101.04 28.882C99.8613 29.974 98.2753 30.52 96.282 30.52ZM105.356 29.454L107.748 29.064V10.136L105.356 9.772V9.2H113.52C116.086 9.2 117.992 9.746 119.24 10.838C120.488 11.93 121.112 13.5073 121.112 15.57C121.112 17.6327 120.488 19.21 119.24 20.302C117.992 21.394 116.086 21.94 113.52 21.94H110.608V29.064L113 29.454V30H105.356V29.454ZM113.156 21.316C116.363 21.316 117.966 19.574 117.966 16.09V15.05C117.966 11.5833 116.363 9.85 113.156 9.85H110.608V21.316H113.156ZM119.534 30V29.454L122.082 28.414L129.596 8.68H130.012L137.11 29.064L139.502 29.454V30H131.858V29.454L133.99 29.116L131.78 22.954H124.864L122.758 28.414L125.098 29.454V30H119.534ZM125.072 22.408H131.598L128.478 13.256L125.072 22.408ZM139.807 30V29.376L151.975 9.85H143.915L141.237 15.05H140.561L141.185 9.2H155.485V9.85L143.291 29.376H152.391L155.069 23.786H155.745L155.121 30H139.807ZM157.788 30V29.454L160.18 29.064V10.136L157.788 9.772V9.2H165.432V9.772L163.04 10.136V29.064L165.432 29.454V30H157.788ZM96.282 60.52C94.67 60.52 93.084 60.0607 91.524 59.142L89.314 60.26H88.742V53.578H89.314L91.55 58.414C92.9887 59.4367 94.6353 59.948 96.49 59.948C98.0153 59.948 99.272 59.5493 100.26 58.752C101.265 57.9373 101.768 56.802 101.768 55.346C101.768 54.2887 101.447 53.4567 100.806 52.85C100.165 52.226 99.1247 51.732 97.686 51.368L93.37 50.25C91.862 49.8513 90.7267 49.1753 89.964 48.222C89.2013 47.2513 88.82 46.1073 88.82 44.79C88.82 43.594 89.054 42.5367 89.522 41.618C90.0073 40.682 90.7093 39.9627 91.628 39.46C92.5467 38.94 93.6387 38.68 94.904 38.68C96.4813 38.68 97.894 38.9487 99.142 39.486L101.04 38.68H101.612V43.984H101.04L99.168 40.188C97.868 39.564 96.4553 39.252 94.93 39.252C93.422 39.252 92.2347 39.642 91.368 40.422C90.5013 41.1847 90.068 42.1987 90.068 43.464C90.068 44.4 90.3713 45.1367 90.978 45.674C91.602 46.2113 92.512 46.636 93.708 46.948L98.362 48.17C99.87 48.5513 100.988 49.21 101.716 50.146C102.461 51.0647 102.834 52.4687 102.834 54.358C102.834 56.282 102.236 57.79 101.04 58.882C99.8613 59.974 98.2753 60.52 96.282 60.52ZM115.522 60.52C113.633 60.52 111.943 60.0607 110.452 59.142C108.962 58.2233 107.8 56.9407 106.968 55.294C106.136 53.63 105.72 51.732 105.72 49.6C105.72 47.468 106.136 45.5787 106.968 43.932C107.8 42.268 108.962 40.9767 110.452 40.058C111.943 39.1393 113.633 38.68 115.522 38.68C117.412 38.68 119.102 39.1393 120.592 40.058C122.083 40.9767 123.244 42.268 124.076 43.932C124.908 45.5787 125.324 47.468 125.324 49.6C125.324 51.732 124.908 53.63 124.076 55.294C123.244 56.9407 122.083 58.2233 120.592 59.142C119.102 60.0607 117.412 60.52 115.522 60.52ZM115.522 59.922C116.77 59.922 117.888 59.5927 118.876 58.934C119.882 58.2753 120.67 57.322 121.242 56.074C121.814 54.8087 122.1 53.318 122.1 51.602V47.598C122.1 45.882 121.814 44.4 121.242 43.152C120.67 41.8867 119.882 40.9247 118.876 40.266C117.888 39.6073 116.77 39.278 115.522 39.278C114.257 39.278 113.13 39.6073 112.142 40.266C111.154 40.9247 110.374 41.8867 109.802 43.152C109.23 44.4 108.944 45.882 108.944 47.598V51.602C108.944 53.318 109.23 54.8087 109.802 56.074C110.374 57.322 111.154 58.2753 112.142 58.934C113.13 59.5927 114.257 59.922 115.522 59.922ZM136.018 60.52C134.406 60.52 132.82 60.0607 131.26 59.142L129.05 60.26H128.478V53.578H129.05L131.286 58.414C132.725 59.4367 134.372 59.948 136.226 59.948C137.752 59.948 139.008 59.5493 139.996 58.752C141.002 57.9373 141.504 56.802 141.504 55.346C141.504 54.2887 141.184 53.4567 140.542 52.85C139.901 52.226 138.861 51.732 137.422 51.368L133.106 50.25C131.598 49.8513 130.463 49.1753 129.7 48.222C128.938 47.2513 128.556 46.1073 128.556 44.79C128.556 43.594 128.79 42.5367 129.258 41.618C129.744 40.682 130.446 39.9627 131.364 39.46C132.283 38.94 133.375 38.68 134.64 38.68C136.218 38.68 137.63 38.9487 138.878 39.486L140.776 38.68H141.348V43.984H140.776L138.904 40.188C137.604 39.564 136.192 39.252 134.666 39.252C133.158 39.252 131.971 39.642 131.104 40.422C130.238 41.1847 129.804 42.1987 129.804 43.464C129.804 44.4 130.108 45.1367 130.714 45.674C131.338 46.2113 132.248 46.636 133.444 46.948L138.098 48.17C139.606 48.5513 140.724 49.21 141.452 50.146C142.198 51.0647 142.57 52.4687 142.57 54.358C142.57 56.282 141.972 57.79 140.776 58.882C139.598 59.974 138.012 60.52 136.018 60.52ZM149.331 60V59.454L151.723 59.064V39.85H147.433L145.457 44.998H144.703V39.2H161.629V44.998H160.849L158.899 39.85H154.583V59.064L156.975 59.454V60H149.331ZM163.298 60V59.454L165.69 59.064V40.136L163.298 39.772V39.2H178.95V45.154H178.248L176.246 39.85H168.55V49.21H171.93L173.464 45.44H174.14V53.656H173.464L171.904 49.834H168.55V59.376H176.714L178.846 53.656H179.522V60H163.298ZM182.114 60V59.454L184.532 58.414V40.786L182.114 39.772V39.2H186.95L198.156 54.904V40.786L195.738 39.772V39.2H201.276V39.772L198.806 40.786V60H198.156L185.182 41.774V58.414L187.678 59.454V60H182.114ZM203.212 60V59.454L205.604 59.064V40.136L203.212 39.772V39.2H210.856V39.772L208.464 40.136V59.064L210.856 59.454V60H203.212ZM212.936 59.454L215.328 59.064V40.136L212.936 39.772V39.2H220.866C222.738 39.2 224.229 39.3733 225.338 39.72C226.448 40.0667 227.254 40.5953 227.756 41.306C228.259 41.9993 228.51 42.918 228.51 44.062C228.51 46.558 226.933 48.1527 223.778 48.846V48.976C225.702 49.236 227.193 49.808 228.25 50.692C229.325 51.576 229.862 52.8067 229.862 54.384C229.862 56.2907 229.16 57.7033 227.756 58.622C226.37 59.5407 224.489 60 222.114 60H212.936V59.454ZM221.074 48.768C222.461 48.768 223.527 48.378 224.272 47.598C225.018 46.818 225.39 45.7087 225.39 44.27V44.114C225.39 41.2713 223.882 39.85 220.866 39.85H218.188V48.768H221.074ZM222.114 59.376C223.588 59.376 224.732 58.9513 225.546 58.102C226.361 57.2353 226.768 56.0047 226.768 54.41V54.124C226.768 52.5467 226.361 51.368 225.546 50.588C224.749 49.808 223.605 49.418 222.114 49.418H218.188V59.376H222.114ZM232.31 60V59.454L234.702 59.064V40.136L232.31 39.772V39.2H239.954V39.772L237.562 40.136V59.064L239.954 59.454V60H232.31ZM242.034 60V59.454L244.426 59.064V40.136L242.034 39.772V39.2H249.678V39.772L247.286 40.136V59.376H255.06L257.192 53.656H257.894V60H242.034ZM259.579 60V59.454L261.971 59.064V40.136L259.579 39.772V39.2H267.223V39.772L264.831 40.136V59.064L267.223 59.454V60H259.579Z" fill="white"/>
</svg>
