<svg xmlns="http://www.w3.org/2000/svg" viewBox="0 0 186 186"><defs><style>.cls-1{fill:#fff;}.cls-2{fill:#0f8b8d;}.cls-3{fill:none;stroke:#fff;stroke-miterlimit:10;stroke-width:5px;}</style></defs><title>Risorsa 1</title><g id="Livello_2" data-name="Livello 2"><g id="Livello_1-2" data-name="Livello 1"><g id="ICONE"><g id="LogoHome"><path class="cls-1" d="M157.75,66.14a2.69,2.69,0,0,1-.8,2.37l-14,14,.47.45A43,43,0,0,1,154,99a29.27,29.27,0,0,1,.81,17.23,35,35,0,0,1-9.64,16.06,56.72,56.72,0,0,1-18,12.44,5.25,5.25,0,0,0-2.85,3l-3.06,8.14a2.62,2.62,0,0,1-2,1.66,2.71,2.71,0,0,1-2.37-.81l-13.36-13.36-.45.47A42.83,42.83,0,0,1,87,154.35a29.34,29.34,0,0,1-17.23.81q-8.61-2.19-16-9.65a56.82,56.82,0,0,1-12.45-17.95,5.18,5.18,0,0,0-3-2.84l-8.14-3.07a2.62,2.62,0,0,1-1.65-2,2.7,2.7,0,0,1,.8-2.38l13.37-13.37c-.37-.34-.73-.68-1.09-1A42.84,42.84,0,0,1,31.07,86.75a29.18,29.18,0,0,1-.81-17.23A34.86,34.86,0,0,1,39.9,53.46,56.74,56.74,0,0,1,57.85,41a5.22,5.22,0,0,0,2.85-3l3.07-8.14a2.6,2.6,0,0,1,2-1.65,2.71,2.71,0,0,1,2.37.8l14,14c.34-.37.69-.73,1.05-1.09A42.72,42.72,0,0,1,99.27,31.45a29.3,29.3,0,0,1,17.24-.82,35,35,0,0,1,16,9.64,57,57,0,0,1,12.44,18,5.25,5.25,0,0,0,3,2.85l8.14,3.06A2.6,2.6,0,0,1,157.75,66.14Zm-6,45.09q.25-9.93-7.67-17.87-5.88-5.86-12.87-5.62t-16,5.33l-8.59,4.22c6.43,13.32,6.85,23.61,6.24,27.76a31.25,31.25,0,0,1-4.76,12.57l1.1.41a30.71,30.71,0,0,0,31-5.7c.82-.74,1.63-1.5,2.43-2.29Q151.51,121.18,151.78,111.23ZM138.26,76.16a30.71,30.71,0,0,0-5.7-31c-.74-.82-1.5-1.63-2.29-2.42q-8.87-8.88-18.81-9.14T93.59,41.31Q87.73,47.18,88,54.17t5.33,16l4.63,9.43c4.27-1.82,8.72-3.62,13.15-5.27h0a30.32,30.32,0,0,1,13.59-1.21,31.27,31.27,0,0,1,12.88,5ZM102.11,93A9.11,9.11,0,1,0,93,102.11,9.11,9.11,0,0,0,102.11,93ZM98,135.11a15.57,15.57,0,0,0,.27-3.49q-.25-7-5.33-16s-1.87-3.63-4.6-9.32c-13.42,6.55-23.82,7-28,6.36a31.34,31.34,0,0,1-11.9-4.33L48,109.63a30.71,30.71,0,0,0,5.71,31c.73.83,1.48,1.63,2.28,2.42q8.88,8.88,18.8,9.14t17.88-7.68A19.18,19.18,0,0,0,97.52,137,1.9,1.9,0,0,1,98,135.11ZM77.86,48.53l-2.07-.76a30.68,30.68,0,0,0-31,5.7c-.82.72-1.63,1.49-2.42,2.28q-8.87,8.88-9.13,18.81t7.67,17.87q5.88,5.88,12.86,5.62t16-5.33s4-2,10.15-5c-1.85-4.34-3.69-8.89-5.37-13.39a0,0,0,0,0,0,0,30.44,30.44,0,0,1-1.19-13.59A31.15,31.15,0,0,1,77.86,48.53Z"/><circle class="cls-2" cx="93" cy="93" r="9.11"/><circle class="cls-3" cx="93" cy="93" r="90.5"/></g></g></g></g></svg>